<svg width="123" height="31" viewBox="0 0 123 31" fill="none" xmlns="http://www.w3.org/2000/svg">
<path d="M18.64 29.48V23.72H6.72V1H0V29.48H18.64Z" fill="#4A99D3"/>
<path d="M21.2191 15.24C21.2191 24.28 27.6191 30.48 36.9791 30.48C46.2991 30.48 52.7391 24.28 52.7391 15.24C52.7391 6.24 46.2991 0 36.9791 0C27.6191 0 21.2191 6.24 21.2191 15.24ZM27.9391 15.24C27.9391 9.68 31.6591 5.76 36.9791 5.76C42.2991 5.76 46.0191 9.68 46.0191 15.24C46.0191 20.8 42.2991 24.72 36.9791 24.72C31.6591 24.68 27.9391 20.8 27.9391 15.24Z" fill="#4A99D3"/>
<path d="M80.8906 17.72C80.6506 21.68 77.0106 24.72 72.4906 24.72C67.1306 24.72 63.2906 20.72 63.2906 15.24C63.2906 9.72 67.0506 5.76 72.2906 5.76C75.6506 5.76 78.6906 7.68 79.6106 10.32L85.7706 8.96C84.3706 3.72 78.8506 0 72.3306 0C63.1706 0 56.5706 6.4 56.5706 15.24C56.5706 24.08 63.1706 30.48 72.3306 30.48C81.9306 30.48 88.2906 23.28 87.3706 13.32H72.0906V17.72H80.8906Z" fill="#4A99D3"/>
<path d="M91.2972 15.24C91.2972 24.28 97.6972 30.48 107.057 30.48C116.377 30.48 122.817 24.28 122.817 15.24C122.817 6.24 116.377 0 107.057 0C97.6972 0 91.2972 6.24 91.2972 15.24ZM98.0172 15.24C98.0172 9.68 101.737 5.76 107.057 5.76C112.377 5.76 116.097 9.68 116.097 15.24C116.097 20.8 112.377 24.72 107.057 24.72C101.737 24.68 98.0172 20.8 98.0172 15.24Z" fill="#4A99D3"/>
</svg>
